<?xml version="1.0" encoding="UTF-8" standalone="no"?>
<svg
   viewBox="0 0 214 214"
   width="214"
   height="214"
   version="1.1"
   id="svg10"
   sodipodi:docname="BlackBullIco.svg"
   inkscape:version="1.4 (86a8ad7, 2024-10-11)"
   xmlns:inkscape="http://www.inkscape.org/namespaces/inkscape"
   xmlns:sodipodi="http://sodipodi.sourceforge.net/DTD/sodipodi-0.dtd"
   xmlns="http://www.w3.org/2000/svg"
   xmlns:svg="http://www.w3.org/2000/svg">
  <defs
     id="defs10" />
  <sodipodi:namedview
     id="namedview10"
     pagecolor="#ffffff"
     bordercolor="#000000"
     borderopacity="0.25"
     inkscape:showpageshadow="2"
     inkscape:pageopacity="0.0"
     inkscape:pagecheckerboard="0"
     inkscape:deskcolor="#d1d1d1"
     inkscape:zoom="0.24599914"
     inkscape:cx="304.87912"
     inkscape:cy="-148.37451"
     inkscape:window-width="2400"
     inkscape:window-height="1271"
     inkscape:window-x="-9"
     inkscape:window-y="1327"
     inkscape:window-maximized="1"
     inkscape:current-layer="svg10" />
  <style
     id="style1" />
  <path
     d="m 155.02045,103.93866 -42.6,-21.600005 22.5,-13.5 c 17.8,-10.7 16.8,-34.1 -1.9,-43.5 L 85.320454,1.1386551 c -3,-1.5 -6.2,1.6 -4.3,4.1 L 106.02045,38.038655 c 1.9,2.5 1,5.9 -1.9,7.5 l -58.099996,24.3 c -1,0.5 -1.6,1.4 -1.6,2.4 v 45.600005 c 0,2.3 2.9,3.6 5,2.3 l 55.599996,-33.500005 22.9,30.000005 c 1.9,2.5 1,5.9 -1.9,7.5 l -80.099996,38.3 c -1,0.5 -1.6,1.4 -1.6,2.4 v 45.6 c 0,2.3 2.9,3.6 5,2.3 l 107.599996,-65.3 c 17.8,-10.7 16.8,-34.1 -1.9,-43.5 z"
     id="path10"
     style="fill:#ffffff" />
</svg>
